<svg width="126" height="29" viewBox="0 0 126 29" fill="none" xmlns="http://www.w3.org/2000/svg">
<path d="M0 28.2195V0.776245H9.38467V28.2195H0Z" fill="white"/>
<path d="M28.352 8.56485V28.2151H19.0465V8.56485H12.2401V0.776245H35.154V8.56921H28.352V8.56485Z" fill="white"/>
<path d="M33.0817 20.505V13.8372H43.8743V20.505H33.0817Z" fill="white"/>
<path d="M56.2332 28.9914C54.0421 28.9914 51.9126 28.6164 49.8404 27.8663C47.7681 27.1162 46.0126 26.1088 44.5783 24.8442L50.2495 18.7214C50.9271 19.4715 51.8114 20.1038 52.907 20.6228C54.0025 21.1417 55.098 21.399 56.1936 21.399C57.5751 21.399 58.2659 20.9717 58.2659 20.1213C58.2659 19.6329 57.9667 19.2317 57.3683 18.9177C56.77 18.608 55.4368 18.1153 53.3777 17.4437C51.1603 16.7198 49.4136 15.7516 48.1377 14.5349C46.8617 13.3226 46.2194 11.6131 46.2194 9.41959C46.2194 7.79296 46.5625 6.3495 47.2577 5.09791C47.9485 3.84633 48.868 2.8564 50.0163 2.13249C51.1647 1.40858 52.3966 0.872184 53.7121 0.52331C55.0277 0.174437 56.4048 0 57.8391 0C59.6914 0 61.5613 0.361956 63.4488 1.08587C65.3407 1.80978 66.9862 2.80407 68.3941 4.06874L62.6084 9.92109C62.0101 9.19718 61.2577 8.62154 60.3601 8.19417C59.4626 7.7668 58.6178 7.55311 57.8391 7.55311C56.3256 7.55311 55.5688 7.9674 55.5688 8.79161C55.5688 9.17973 55.7492 9.47192 56.1144 9.6638C56.4796 9.85568 57.2099 10.1348 58.3055 10.4967C59.0622 10.754 59.6606 10.9546 60.105 11.0985C60.5493 11.2424 61.1433 11.4649 61.8825 11.7788C62.626 12.0885 63.2244 12.385 63.682 12.6685C64.1395 12.9519 64.6455 13.327 65.2087 13.7936C65.7674 14.2602 66.2074 14.7355 66.5198 15.2283C66.8322 15.7211 67.1006 16.3055 67.3205 16.9901C67.5405 17.6748 67.6505 18.4031 67.6505 19.1793C67.6505 22.2799 66.5154 24.6915 64.2495 26.4097C61.9837 28.1323 59.3086 28.9914 56.2332 28.9914Z" fill="#00FEFF"/>
<path d="M83.1773 19.3799H80.555V28.2195H71.2847V0.776245H83.1729C84.6864 0.776245 86.0811 0.933238 87.357 1.24286C88.633 1.55249 89.8253 2.04527 90.934 2.71685C92.0428 3.38844 92.9139 4.34348 93.5563 5.58634C94.1942 6.82484 94.5154 8.29883 94.5154 10.004C94.5154 11.6306 94.1942 13.0653 93.5563 14.3082C92.9183 15.5467 92.056 16.5322 90.9736 17.2518C89.8913 17.9757 88.6901 18.5121 87.3746 18.861C86.0635 19.2055 84.6644 19.3799 83.1773 19.3799ZM82.5129 7.9456H80.5594V12.3632H82.5129C83.2961 12.3632 83.9604 12.1713 84.506 11.7832C85.0516 11.3951 85.3287 10.8282 85.3287 10.0781C85.3287 8.65643 84.3916 7.9456 82.5129 7.9456Z" fill="#00FEFF"/>
<path d="M114.578 28.2195L107.187 17.291H107.108V28.2195H98.0352V0.776245H107.068V10.8936H107.147L114.539 0.776245H125.49L115.089 13.3357L126 28.2195H114.578Z" fill="#00FEFF"/>
</svg>
